<mxfile host="app.diagrams.net" modified="2023-03-11T01:51:31.733Z" agent="5.0 (Macintosh; Intel Mac OS X 10_15_7) AppleWebKit/537.36 (KHTML, like Gecko) Chrome/110.0.0.0 Safari/537.36" etag="RfI-vH4q2iRJ0a5fa-qP" version="15.5.8" type="github" pages="4">
  <diagram name="B치sico" id="13e1069c-82ec-6db2-03f1-153e76fe0fe0">
    <mxGraphModel dx="786" dy="511" grid="1" gridSize="10" guides="1" tooltips="1" connect="1" arrows="1" fold="1" page="1" pageScale="1" pageWidth="1100" pageHeight="850" background="none" math="0" shadow="0">
      <root>
        <mxCell id="0" />
        <mxCell id="1" parent="0" />
        <mxCell id="Uq_Sw9kxvUxluQxIAM7Q-2" value="" style="rounded=0;whiteSpace=wrap;html=1;" vertex="1" parent="1">
          <mxGeometry x="120" y="30" width="540" height="400" as="geometry" />
        </mxCell>
        <mxCell id="Uq_Sw9kxvUxluQxIAM7Q-1" value="Administrador" style="shape=umlActor;verticalLabelPosition=bottom;verticalAlign=top;html=1;outlineConnect=0;" vertex="1" parent="1">
          <mxGeometry x="40" y="160" width="30" height="60" as="geometry" />
        </mxCell>
        <mxCell id="Uq_Sw9kxvUxluQxIAM7Q-3" value="Crear usuario" style="ellipse;whiteSpace=wrap;html=1;" vertex="1" parent="1">
          <mxGeometry x="300" y="60" width="140" height="70" as="geometry" />
        </mxCell>
        <mxCell id="Uq_Sw9kxvUxluQxIAM7Q-5" value="" style="endArrow=none;endFill=0;endSize=12;html=1;rounded=0;" edge="1" parent="1" target="Uq_Sw9kxvUxluQxIAM7Q-3">
          <mxGeometry width="160" relative="1" as="geometry">
            <mxPoint x="90" y="189.5" as="sourcePoint" />
            <mxPoint x="250" y="189.5" as="targetPoint" />
          </mxGeometry>
        </mxCell>
        <mxCell id="Uq_Sw9kxvUxluQxIAM7Q-6" value="SiVoC" style="text;html=1;align=center;verticalAlign=middle;resizable=0;points=[];autosize=1;strokeColor=none;fillColor=none;" vertex="1" parent="1">
          <mxGeometry x="360" y="10" width="50" height="20" as="geometry" />
        </mxCell>
        <mxCell id="Uq_Sw9kxvUxluQxIAM7Q-7" value="Usuario" style="shape=umlActor;verticalLabelPosition=bottom;verticalAlign=top;html=1;" vertex="1" parent="1">
          <mxGeometry x="730" y="160" width="30" height="60" as="geometry" />
        </mxCell>
        <mxCell id="Uq_Sw9kxvUxluQxIAM7Q-8" value="Iniciar sesi칩n" style="ellipse;whiteSpace=wrap;html=1;" vertex="1" parent="1">
          <mxGeometry x="300" y="210" width="140" height="70" as="geometry" />
        </mxCell>
        <mxCell id="Uq_Sw9kxvUxluQxIAM7Q-9" value="" style="endArrow=none;endFill=0;endSize=12;html=1;rounded=0;exitX=0.979;exitY=0.4;exitDx=0;exitDy=0;exitPerimeter=0;" edge="1" parent="1" source="Uq_Sw9kxvUxluQxIAM7Q-8">
          <mxGeometry width="160" relative="1" as="geometry">
            <mxPoint x="500" y="267.49" as="sourcePoint" />
            <mxPoint x="721.8845208376235" y="192.50019657594066" as="targetPoint" />
          </mxGeometry>
        </mxCell>
      </root>
    </mxGraphModel>
  </diagram>
  <diagram id="OFP8aKuDo6RC1eGXDDAb" name="Solicitud">
    <mxGraphModel dx="786" dy="511" grid="1" gridSize="10" guides="1" tooltips="1" connect="1" arrows="1" fold="1" page="1" pageScale="1" pageWidth="827" pageHeight="1169" math="0" shadow="0">
      <root>
        <mxCell id="OIdUCjDSJmwe2aSegpDI-0" />
        <mxCell id="OIdUCjDSJmwe2aSegpDI-1" parent="OIdUCjDSJmwe2aSegpDI-0" />
        <mxCell id="OIdUCjDSJmwe2aSegpDI-3" value="" style="rounded=0;whiteSpace=wrap;html=1;" vertex="1" parent="OIdUCjDSJmwe2aSegpDI-1">
          <mxGeometry x="120" y="40" width="590" height="440" as="geometry" />
        </mxCell>
        <mxCell id="OIdUCjDSJmwe2aSegpDI-4" value="Empleado" style="shape=umlActor;verticalLabelPosition=bottom;verticalAlign=top;html=1;" vertex="1" parent="OIdUCjDSJmwe2aSegpDI-1">
          <mxGeometry x="40" y="140" width="30" height="60" as="geometry" />
        </mxCell>
        <mxCell id="OIdUCjDSJmwe2aSegpDI-13" value="Solicitar vacaciones" style="ellipse;whiteSpace=wrap;html=1;" vertex="1" parent="OIdUCjDSJmwe2aSegpDI-1">
          <mxGeometry x="360" y="70" width="140" height="70" as="geometry" />
        </mxCell>
        <mxCell id="OIdUCjDSJmwe2aSegpDI-14" value="Solicitar aprobaci칩n de jefe directo" style="ellipse;whiteSpace=wrap;html=1;" vertex="1" parent="OIdUCjDSJmwe2aSegpDI-1">
          <mxGeometry x="360" y="190" width="140" height="70" as="geometry" />
        </mxCell>
        <mxCell id="OIdUCjDSJmwe2aSegpDI-15" value="Transferir conocimiento a empleado interino" style="ellipse;whiteSpace=wrap;html=1;" vertex="1" parent="OIdUCjDSJmwe2aSegpDI-1">
          <mxGeometry x="360" y="320" width="140" height="70" as="geometry" />
        </mxCell>
        <mxCell id="OIdUCjDSJmwe2aSegpDI-17" value="" style="endArrow=none;endFill=0;endSize=12;html=1;rounded=0;" edge="1" parent="OIdUCjDSJmwe2aSegpDI-1" source="OIdUCjDSJmwe2aSegpDI-4" target="OIdUCjDSJmwe2aSegpDI-13">
          <mxGeometry width="160" relative="1" as="geometry">
            <mxPoint x="100" y="169.5" as="sourcePoint" />
            <mxPoint x="260" y="169.5" as="targetPoint" />
          </mxGeometry>
        </mxCell>
        <mxCell id="OIdUCjDSJmwe2aSegpDI-18" value="" style="endArrow=none;endFill=0;endSize=12;html=1;rounded=0;" edge="1" parent="OIdUCjDSJmwe2aSegpDI-1" source="OIdUCjDSJmwe2aSegpDI-4" target="OIdUCjDSJmwe2aSegpDI-14">
          <mxGeometry width="160" relative="1" as="geometry">
            <mxPoint x="80" y="177.39999999999998" as="sourcePoint" />
            <mxPoint x="373.86146610509354" y="126.46401254178375" as="targetPoint" />
          </mxGeometry>
        </mxCell>
        <mxCell id="OIdUCjDSJmwe2aSegpDI-19" value="" style="endArrow=none;endFill=0;endSize=12;html=1;rounded=0;entryX=0.046;entryY=0.714;entryDx=0;entryDy=0;entryPerimeter=0;exitX=0.85;exitY=0.9;exitDx=0;exitDy=0;exitPerimeter=0;" edge="1" parent="OIdUCjDSJmwe2aSegpDI-1" source="OIdUCjDSJmwe2aSegpDI-4" target="OIdUCjDSJmwe2aSegpDI-15">
          <mxGeometry width="160" relative="1" as="geometry">
            <mxPoint x="90" y="187.39999999999998" as="sourcePoint" />
            <mxPoint x="383.86146610509354" y="136.46401254178375" as="targetPoint" />
          </mxGeometry>
        </mxCell>
        <mxCell id="ZS-5orcL-JNTA6QOxB-8-0" value="SiVoC" style="text;html=1;align=center;verticalAlign=middle;resizable=0;points=[];autosize=1;strokeColor=none;fillColor=none;" vertex="1" parent="OIdUCjDSJmwe2aSegpDI-1">
          <mxGeometry x="360" y="10" width="50" height="20" as="geometry" />
        </mxCell>
      </root>
    </mxGraphModel>
  </diagram>
  <diagram id="vvB0xuHF4RWDLU1C6_GG" name="Aprobaci칩n">
    <mxGraphModel dx="786" dy="511" grid="1" gridSize="10" guides="1" tooltips="1" connect="1" arrows="1" fold="1" page="1" pageScale="1" pageWidth="827" pageHeight="1169" math="0" shadow="0">
      <root>
        <mxCell id="d_jIBE9eTZxnZWP9yrRx-0" />
        <mxCell id="d_jIBE9eTZxnZWP9yrRx-1" parent="d_jIBE9eTZxnZWP9yrRx-0" />
        <mxCell id="z1b7BeXQdGJewoo0PnxW-0" value="" style="rounded=0;whiteSpace=wrap;html=1;" vertex="1" parent="d_jIBE9eTZxnZWP9yrRx-1">
          <mxGeometry x="120" y="40" width="590" height="440" as="geometry" />
        </mxCell>
        <mxCell id="z1b7BeXQdGJewoo0PnxW-1" value="Jefe" style="shape=umlActor;verticalLabelPosition=bottom;verticalAlign=top;html=1;" vertex="1" parent="d_jIBE9eTZxnZWP9yrRx-1">
          <mxGeometry x="40" y="140" width="30" height="60" as="geometry" />
        </mxCell>
        <mxCell id="z1b7BeXQdGJewoo0PnxW-2" value="Aprobar vacaciones" style="ellipse;whiteSpace=wrap;html=1;" vertex="1" parent="d_jIBE9eTZxnZWP9yrRx-1">
          <mxGeometry x="360" y="70" width="140" height="70" as="geometry" />
        </mxCell>
        <mxCell id="z1b7BeXQdGJewoo0PnxW-4" value="Monitorear transferencia a empleado interino" style="ellipse;whiteSpace=wrap;html=1;" vertex="1" parent="d_jIBE9eTZxnZWP9yrRx-1">
          <mxGeometry x="340" y="390" width="140" height="70" as="geometry" />
        </mxCell>
        <mxCell id="z1b7BeXQdGJewoo0PnxW-5" value="" style="endArrow=none;endFill=0;endSize=12;html=1;rounded=0;" edge="1" parent="d_jIBE9eTZxnZWP9yrRx-1" source="z1b7BeXQdGJewoo0PnxW-1" target="z1b7BeXQdGJewoo0PnxW-2">
          <mxGeometry width="160" relative="1" as="geometry">
            <mxPoint x="100" y="169.5" as="sourcePoint" />
            <mxPoint x="260" y="169.5" as="targetPoint" />
          </mxGeometry>
        </mxCell>
        <mxCell id="z1b7BeXQdGJewoo0PnxW-7" value="" style="endArrow=none;endFill=0;endSize=12;html=1;rounded=0;entryX=0.5;entryY=0.5;entryDx=0;entryDy=0;exitX=1;exitY=0.5;exitDx=0;exitDy=0;entryPerimeter=0;" edge="1" parent="d_jIBE9eTZxnZWP9yrRx-1" target="z1b7BeXQdGJewoo0PnxW-9" source="z1b7BeXQdGJewoo0PnxW-2">
          <mxGeometry width="160" relative="1" as="geometry">
            <mxPoint x="90" y="187.39999999999998" as="sourcePoint" />
            <mxPoint x="383.86146610509354" y="136.46401254178375" as="targetPoint" />
          </mxGeometry>
        </mxCell>
        <mxCell id="z1b7BeXQdGJewoo0PnxW-9" value="RRHH" style="shape=umlActor;verticalLabelPosition=bottom;verticalAlign=top;html=1;" vertex="1" parent="d_jIBE9eTZxnZWP9yrRx-1">
          <mxGeometry x="750" y="150" width="30" height="60" as="geometry" />
        </mxCell>
        <mxCell id="z1b7BeXQdGJewoo0PnxW-10" value="Notificar al empleado" style="ellipse;whiteSpace=wrap;html=1;" vertex="1" parent="d_jIBE9eTZxnZWP9yrRx-1">
          <mxGeometry x="330" y="240" width="140" height="70" as="geometry" />
        </mxCell>
        <mxCell id="z1b7BeXQdGJewoo0PnxW-11" value="" style="endArrow=none;endFill=0;endSize=12;html=1;rounded=0;entryX=0.5;entryY=1;entryDx=0;entryDy=0;startArrow=open;startFill=0;" edge="1" parent="d_jIBE9eTZxnZWP9yrRx-1" source="z1b7BeXQdGJewoo0PnxW-10" target="z1b7BeXQdGJewoo0PnxW-2">
          <mxGeometry width="160" relative="1" as="geometry">
            <mxPoint x="510" y="115" as="sourcePoint" />
            <mxPoint x="775" y="190" as="targetPoint" />
          </mxGeometry>
        </mxCell>
        <mxCell id="z1b7BeXQdGJewoo0PnxW-12" value="" style="endArrow=none;endFill=0;endSize=12;html=1;rounded=0;exitX=1;exitY=0.5;exitDx=0;exitDy=0;entryX=0;entryY=1;entryDx=0;entryDy=0;entryPerimeter=0;" edge="1" parent="d_jIBE9eTZxnZWP9yrRx-1" source="z1b7BeXQdGJewoo0PnxW-4" target="z1b7BeXQdGJewoo0PnxW-9">
          <mxGeometry width="160" relative="1" as="geometry">
            <mxPoint x="508.7819867206522" y="228.49926345018218" as="sourcePoint" />
            <mxPoint x="760" y="190" as="targetPoint" />
          </mxGeometry>
        </mxCell>
        <mxCell id="1DlJO2A0m_aLG2c50_uv-0" value="SiVoC" style="text;html=1;align=center;verticalAlign=middle;resizable=0;points=[];autosize=1;strokeColor=none;fillColor=none;" vertex="1" parent="d_jIBE9eTZxnZWP9yrRx-1">
          <mxGeometry x="360" y="10" width="50" height="20" as="geometry" />
        </mxCell>
        <mxCell id="kocMn68ilW-KG0Al3UMS-0" value="Actualizar datos del empleado" style="ellipse;whiteSpace=wrap;html=1;" vertex="1" parent="d_jIBE9eTZxnZWP9yrRx-1">
          <mxGeometry x="150" y="240" width="140" height="70" as="geometry" />
        </mxCell>
        <mxCell id="kocMn68ilW-KG0Al3UMS-1" value="" style="endArrow=open;endFill=1;endSize=12;html=1;rounded=0;exitX=0.1;exitY=0.836;exitDx=0;exitDy=0;exitPerimeter=0;" edge="1" parent="d_jIBE9eTZxnZWP9yrRx-1" source="z1b7BeXQdGJewoo0PnxW-2" target="kocMn68ilW-KG0Al3UMS-0">
          <mxGeometry width="160" relative="1" as="geometry">
            <mxPoint x="320" y="250" as="sourcePoint" />
            <mxPoint x="480" y="250" as="targetPoint" />
          </mxGeometry>
        </mxCell>
        <mxCell id="Pr-yAd9iA1Hd_G5BoeID-0" value="Validar solicitud de vacaciones" style="ellipse;whiteSpace=wrap;html=1;" vertex="1" parent="d_jIBE9eTZxnZWP9yrRx-1">
          <mxGeometry x="500" y="240" width="140" height="70" as="geometry" />
        </mxCell>
        <mxCell id="Pr-yAd9iA1Hd_G5BoeID-1" value="" style="endArrow=none;endFill=0;endSize=12;html=1;rounded=0;entryX=1;entryY=1;entryDx=0;entryDy=0;startArrow=open;startFill=0;exitX=0.5;exitY=0;exitDx=0;exitDy=0;" edge="1" parent="d_jIBE9eTZxnZWP9yrRx-1" source="Pr-yAd9iA1Hd_G5BoeID-0" target="z1b7BeXQdGJewoo0PnxW-2">
          <mxGeometry width="160" relative="1" as="geometry">
            <mxPoint x="404.45792433133056" y="280.32094411845446" as="sourcePoint" />
            <mxPoint x="440" y="150" as="targetPoint" />
          </mxGeometry>
        </mxCell>
      </root>
    </mxGraphModel>
  </diagram>
  <diagram id="P4nInEoORABvxMsB5uDf" name="Reportes">
    <mxGraphModel dx="786" dy="511" grid="1" gridSize="10" guides="1" tooltips="1" connect="1" arrows="1" fold="1" page="1" pageScale="1" pageWidth="827" pageHeight="1169" math="0" shadow="0">
      <root>
        <mxCell id="dm81TqliGmAJZ1_SW5dx-0" />
        <mxCell id="dm81TqliGmAJZ1_SW5dx-1" parent="dm81TqliGmAJZ1_SW5dx-0" />
        <mxCell id="dAfUqnseE6dkWvROcrOK-0" value="" style="rounded=0;whiteSpace=wrap;html=1;" vertex="1" parent="dm81TqliGmAJZ1_SW5dx-1">
          <mxGeometry x="120" y="40" width="590" height="440" as="geometry" />
        </mxCell>
        <mxCell id="dAfUqnseE6dkWvROcrOK-1" value="RRHH" style="shape=umlActor;verticalLabelPosition=bottom;verticalAlign=top;html=1;" vertex="1" parent="dm81TqliGmAJZ1_SW5dx-1">
          <mxGeometry x="50" y="130" width="30" height="60" as="geometry" />
        </mxCell>
        <mxCell id="dAfUqnseE6dkWvROcrOK-2" value="Generar reporte trimestral" style="ellipse;whiteSpace=wrap;html=1;" vertex="1" parent="dm81TqliGmAJZ1_SW5dx-1">
          <mxGeometry x="360" y="70" width="140" height="70" as="geometry" />
        </mxCell>
        <mxCell id="dAfUqnseE6dkWvROcrOK-3" value="Generar gr치fica anual" style="ellipse;whiteSpace=wrap;html=1;" vertex="1" parent="dm81TqliGmAJZ1_SW5dx-1">
          <mxGeometry x="360" y="300" width="140" height="70" as="geometry" />
        </mxCell>
        <mxCell id="dAfUqnseE6dkWvROcrOK-5" value="" style="endArrow=none;endFill=0;endSize=12;html=1;rounded=0;" edge="1" parent="dm81TqliGmAJZ1_SW5dx-1" source="dAfUqnseE6dkWvROcrOK-1" target="dAfUqnseE6dkWvROcrOK-2">
          <mxGeometry width="160" relative="1" as="geometry">
            <mxPoint x="100" y="169.5" as="sourcePoint" />
            <mxPoint x="260" y="169.5" as="targetPoint" />
          </mxGeometry>
        </mxCell>
        <mxCell id="dAfUqnseE6dkWvROcrOK-6" value="" style="endArrow=none;endFill=0;endSize=12;html=1;rounded=0;" edge="1" parent="dm81TqliGmAJZ1_SW5dx-1" target="dAfUqnseE6dkWvROcrOK-3">
          <mxGeometry width="160" relative="1" as="geometry">
            <mxPoint x="80" y="177.39999999999998" as="sourcePoint" />
            <mxPoint x="373.86146610509354" y="126.46401254178375" as="targetPoint" />
          </mxGeometry>
        </mxCell>
        <mxCell id="lez5TbzpZTZQfrVaCIBn-0" value="SiVoC" style="text;html=1;align=center;verticalAlign=middle;resizable=0;points=[];autosize=1;strokeColor=none;fillColor=none;" vertex="1" parent="dm81TqliGmAJZ1_SW5dx-1">
          <mxGeometry x="360" y="10" width="50" height="20" as="geometry" />
        </mxCell>
      </root>
    </mxGraphModel>
  </diagram>
</mxfile>
